# Blender v2.93.3 OBJ File: 'sculpture.blend'
# www.blender.org
mtllib alt_sculpture.mtl
o Plane_Plane.000
v 0.253882 -0.971730 3.653270
v 0.173753 0.335624 3.166682
v 0.559465 -1.136430 2.798899
v 0.386649 0.008486 2.821085
v 0.103946 -1.237088 3.314218
v 0.340689 -1.237088 2.996691
v 0.537287 1.034717 3.500027
v 2.007170 0.289194 2.473043
v 1.999337 1.185326 3.067173
v 1.959648 -0.450871 2.639617
v 0.992932 -1.790701 2.798899
v 0.421982 -1.593012 3.051452
v 0.448426 -1.788567 2.798899
v 0.476966 -1.968303 2.930817
v 0.480632 -2.301924 2.751175
v 1.551129 -2.093866 2.377271
v 0.583685 -3.277159 2.627617
v 0.252047 -3.354705 2.852007
v 0.207982 -2.303999 2.831831
v 1.227429 3.152395 2.567113
v 1.782701 2.573598 2.548535
v 1.548728 4.027571 -0.039670
v 2.478712 2.900947 0.013584
v 0.947812 3.398183 -2.435980
v 1.648481 2.688775 -2.504000
v 0.900283 1.571348 -3.260994
v 1.648481 1.467853 -2.629900
v 0.650252 -0.801897 -2.794460
v 1.740761 -0.887578 -2.059425
v 2.526834 0.833616 0.097369
v 2.518377 -0.078945 0.914014
v 1.901591 -1.989248 0.929544
v 0.613396 -3.278365 1.766926
v 2.127809 -0.988284 -0.972601
v 1.490280 -1.502949 0.401369
v 1.132783 -2.329167 0.388833
v 0.422909 -3.211415 0.952365
v 0.000000 -0.967331 3.653270
v -0.253882 -0.971730 3.653270
v 0.000000 0.335624 3.166682
v -0.173753 0.335624 3.166682
v -0.559465 -1.136430 2.798899
v -0.386649 0.008486 2.821085
v 0.000000 -1.237088 3.314218
v -0.103946 -1.237088 3.314218
v 0.000000 -1.237088 3.001249
v -0.340689 -1.237088 2.996691
v 0.000000 1.034717 3.500027
v -0.537287 1.034717 3.500027
v -2.007170 0.289194 2.473043
v -1.999337 1.185326 3.067173
v -1.959648 -0.450871 2.639617
v -0.992932 -1.790701 2.798899
v 0.000000 -1.661328 2.989855
v -0.421982 -1.593012 3.051452
v -0.448426 -1.788567 2.798899
v 0.000000 -1.813524 2.798899
v -0.476966 -1.968303 2.930817
v 0.000000 -2.016657 2.930817
v -0.480632 -2.301924 2.751175
v 0.000000 -2.306285 2.831831
v -1.551129 -2.093866 2.377271
v -0.583685 -3.277159 2.627617
v 0.000000 -3.356992 2.843208
v -0.252047 -3.354705 2.852007
v -0.207982 -2.303999 2.831831
v 0.000000 3.531128 2.816926
v -1.227429 3.152395 2.567113
v -1.782701 2.573598 2.548535
v 0.000000 -3.405505 2.541867
v 0.000000 4.370507 0.005702
v -1.548728 4.027571 -0.039670
v -2.478712 2.900947 0.013584
v 0.008779 3.605247 -2.642874
v -0.930254 3.398183 -2.435980
v -1.648481 2.688775 -2.504000
v 0.000000 1.630221 -3.619988
v -0.900283 1.571348 -3.260994
v -1.648481 1.467853 -2.629900
v 0.000000 -0.760633 -2.831794
v -0.650252 -0.801897 -2.794460
v -1.740761 -0.887578 -2.059425
v -2.526834 0.833616 0.097369
v -2.518377 -0.078945 0.914014
v -1.901591 -1.989248 0.929544
v -0.613396 -3.278365 1.766926
v 0.000000 -3.362510 1.491374
v -2.127809 -0.988284 -0.972601
v -1.490280 -1.502949 0.401369
v -1.132783 -2.329167 0.388833
v -0.422909 -2.938135 0.952365
v 0.000000 -3.210923 0.943621
v 0.650252 -2.067336 -2.912689
v 0.000000 -2.026072 -2.950023
v 0.000000 -3.781398 0.563975
v 0.422909 -3.781890 0.572719
v 1.132783 -3.193921 -0.102474
v 1.490280 -2.675098 -0.381570
v 1.935185 -2.192124 -1.623321
v 1.502764 -2.165409 -2.413577
v -0.650252 -2.067336 -2.912689
v -0.422909 -3.645250 0.572719
v -1.490280 -2.675098 -0.381570
v -1.132783 -3.193921 -0.102474
v -1.935185 -2.192124 -1.623321
v -1.502764 -2.165409 -2.413577
vt 0.445598 0.148873
vt 0.463124 0.149854
vt 0.449673 0.245328
vt 0.437689 0.244454
vt 0.554356 0.465149
vt 0.554356 0.559187
vt 0.492422 0.547396
vt 0.522355 0.476073
vt 0.215365 0.709572
vt 0.212734 0.692149
vt 0.234884 0.689470
vt 0.235968 0.696598
vt 0.256322 0.686256
vt 0.260189 0.709572
vt 0.527595 0.570944
vt 0.504873 0.561013
vt 0.474620 0.288775
vt 0.437563 0.286072
vt 0.463101 0.230007
vt 0.571479 0.262707
vt 0.571934 0.313303
vt 0.571934 0.209965
vt 0.478855 0.154202
vt 0.465487 0.143113
vt 0.472713 0.118683
vt 0.511030 0.112361
vt 0.442021 0.141325
vt 0.443420 0.112965
vt 0.258656 0.561094
vt 0.275290 0.563425
vt 0.275281 0.601199
vt 0.275181 0.532379
vt 0.262622 0.531993
vt 0.473468 0.109765
vt 0.476976 0.095670
vt 0.442627 0.105829
vt 0.444248 0.090017
vt 0.444571 0.072139
vt 0.458908 0.073339
vt 0.477147 0.076162
vt 0.547664 0.101627
vt 0.465747 0.002536
vt 0.486795 0.013071
vt 0.448310 0.001257
vt 0.508380 0.449904
vt 0.424135 0.465149
vt 0.548564 0.414056
vt 0.841883 0.919342
vt 0.842042 0.898682
vt 0.882215 0.904058
vt 0.859360 0.919941
vt 0.019361 0.911639
vt 0.029161 0.877098
vt 0.210068 0.907984
vt 0.199019 0.976706
vt 0.803841 0.107488
vt 0.828104 0.022299
vt 0.983378 0.000000
vt 0.973411 0.107488
vt 0.809278 0.546210
vt 0.828593 0.481665
vt 1.000000 0.539286
vt 0.981097 0.587916
vt 0.799311 0.653698
vt 0.990630 0.653089
vt 0.756642 0.499422
vt 0.799311 0.549183
vt 0.792068 0.632361
vt 0.730845 0.618805
vt 0.690948 0.481665
vt 0.664326 0.610152
vt 0.799311 0.799374
vt 0.713237 0.785553
vt 0.669296 0.781126
vt 0.049376 0.554120
vt 0.022845 0.463451
vt 0.081901 0.464263
vt 0.152295 0.565654
vt 0.032671 0.670753
vt 0.156539 0.702831
vt 0.042811 0.722204
vt 0.210068 0.766237
vt 0.842097 0.825731
vt 0.884407 0.844447
vt 0.000000 0.783320
vt 0.769399 0.000000
vt 0.756368 0.141146
vt 0.587415 0.088125
vt 0.606667 0.005691
vt 0.604337 0.251860
vt 0.672559 0.262223
vt 0.803841 0.392329
vt 0.822558 0.350020
vt 0.861164 0.349746
vt 0.860556 0.379080
vt 0.867501 0.478781
vt 0.903462 0.426332
vt 0.223730 0.645512
vt 0.210068 0.506858
vt 0.258656 0.463452
vt 0.258656 0.525938
vt 0.803841 0.209205
vt 0.768791 0.313671
vt 0.425705 0.243580
vt 0.428103 0.147300
vt 0.546933 0.667711
vt 0.519649 0.655275
vt 0.492422 0.581787
vt 0.546933 0.570944
vt 0.210068 0.674752
vt 0.233799 0.682342
vt 0.253079 0.662846
vt 0.264747 0.645512
vt 0.400506 0.283369
vt 0.296146 0.293185
vt 0.294612 0.242510
vt 0.409767 0.226117
vt 0.301621 0.190246
vt 0.401682 0.148573
vt 0.374065 0.102370
vt 0.414505 0.114437
vt 0.418492 0.139684
vt 0.258656 0.502553
vt 0.275281 0.463451
vt 0.275290 0.501216
vt 0.411612 0.105253
vt 0.411184 0.090870
vt 0.410849 0.071326
vt 0.430219 0.071246
vt 0.333702 0.086018
vt 0.406282 0.007198
vt 0.430979 0.000000
vt 0.339069 0.437553
vt 0.302659 0.396117
vt 0.824394 0.919941
vt 0.801241 0.904058
vt 0.324947 0.546082
vt 0.492422 0.465149
vt 0.484930 0.539601
vt 0.323273 0.583692
vt 0.983378 0.214976
vt 0.828104 0.192677
vt 0.809278 0.761186
vt 0.981097 0.718261
vt 1.000000 0.768109
vt 0.828593 0.825731
vt 0.631246 0.495691
vt 0.610624 0.615229
vt 0.571934 0.625813
vt 0.579177 0.542634
vt 0.294612 0.076855
vt 0.279373 0.244596
vt 0.216528 0.250893
vt 0.243115 0.085080
vt 0.626404 0.782970
vt 0.368857 0.904880
vt 0.462304 0.885553
vt 0.429723 0.985542
vt 0.371559 0.991979
vt 0.335072 0.792069
vt 0.443082 0.751457
vt 0.340884 0.739658
vt 0.492422 0.682474
vt 0.799311 0.844447
vt 0.294612 0.682369
vt 0.044865 0.000000
vt 0.227607 0.001670
vt 0.050319 0.142965
vt 0.138384 0.263323
vt 0.803841 0.307234
vt 0.861755 0.319769
vt 0.867501 0.214976
vt 0.903462 0.269183
vt 0.000000 0.211238
vt 0.055518 0.310276
vt 0.065420 0.368625
vt 0.017307 0.345594
vt 0.250800 0.337706
vt 0.191876 0.342931
vt 0.103786 0.425101
vt 0.069022 0.463451
vt 0.039155 0.417128
vt 0.294612 0.331128
vt 0.115488 0.386070
vt 0.492422 0.667711
vt 0.532785 0.676942
vt 0.532785 0.707316
vt 0.501268 0.700634
vt 0.662015 0.867432
vt 0.619123 0.869277
vt 0.620155 0.341866
vt 0.571934 0.339102
vt 0.764936 0.373744
vt 0.803841 0.445386
vt 0.773090 0.481665
vt 0.724030 0.429325
vt 0.771722 0.884217
vt 0.705956 0.871860
vt 0.705410 0.388193
vt 0.492735 0.728659
vt 0.524252 0.735341
vn 0.0000 0.3494 0.9370
vn 0.0036 0.3494 0.9370
vn 0.9284 0.1594 0.3358
vn -0.0096 -0.7839 0.6208
vn 0.0000 -1.0000 0.0000
vn 0.5792 -0.7263 0.3701
vn 0.0000 -0.4304 0.9026
vn 0.2851 -0.5455 0.7881
vn 0.1386 0.0848 0.9867
vn 0.5002 0.2989 0.8127
vn -0.0787 0.0472 0.9958
vn -0.0031 -0.7908 0.6120
vn 0.0404 -0.7851 0.6180
vn 0.0023 0.5919 0.8060
vn -0.0447 0.5646 0.8242
vn 0.1003 -0.3619 0.9268
vn 0.3016 -0.1049 0.9476
vn 0.4519 -0.0127 0.8920
vn 0.3614 -0.4390 0.8226
vn 0.3579 -0.2035 0.9113
vn -0.0193 0.0146 0.9997
vn 0.1962 0.2979 0.9342
vn 0.2731 0.3363 0.9013
vn 0.1499 -0.9879 0.0400
vn 0.7188 0.6319 0.2900
vn 0.2699 0.9133 0.3050
vn 0.7085 0.6318 -0.3145
vn 0.2245 0.9322 -0.2840
vn 0.4716 0.2559 -0.8439
vn 0.3219 0.4016 -0.8574
vn 0.5721 -0.1939 -0.7969
vn 0.2234 -0.2592 -0.9396
vn 0.7559 -0.6476 0.0955
vn 0.9321 -0.2845 0.2243
vn 0.9506 0.1344 0.2800
vn 0.1802 -0.9834 -0.0187
vn 0.9754 0.0658 0.2103
vn 0.9511 0.0179 -0.3084
vn 0.9468 -0.0312 -0.3202
vn 0.1267 -0.9765 -0.1744
vn 0.6087 -0.7418 -0.2815
vn 0.6517 -0.2328 -0.7219
vn 0.9144 -0.4049 0.0059
vn -0.0036 0.3494 0.9370
vn -0.9284 0.1594 0.3358
vn 0.0096 -0.7839 0.6208
vn -0.5792 -0.7263 0.3701
vn -0.2851 -0.5455 0.7881
vn -0.1386 0.0848 0.9867
vn -0.5002 0.2989 0.8127
vn 0.0787 0.0472 0.9958
vn 0.0031 -0.7908 0.6120
vn -0.0404 -0.7851 0.6180
vn -0.0023 0.5919 0.8060
vn 0.0447 0.5646 0.8242
vn -0.1003 -0.3619 0.9268
vn -0.3016 -0.1049 0.9476
vn -0.4519 -0.0127 0.8920
vn -0.3614 -0.4390 0.8226
vn -0.3579 -0.2035 0.9113
vn 0.0193 0.0146 0.9997
vn -0.1962 0.2979 0.9342
vn -0.2731 0.3363 0.9013
vn -0.1499 -0.9879 0.0400
vn -0.7188 0.6319 0.2900
vn -0.2699 0.9133 0.3050
vn -0.7046 0.6351 -0.3165
vn -0.2245 0.9317 -0.2855
vn -0.4680 0.2590 -0.8449
vn -0.3219 0.4041 -0.8562
vn -0.5721 -0.1939 -0.7969
vn -0.2234 -0.2592 -0.9396
vn -0.7559 -0.6476 0.0955
vn -0.9321 -0.2845 0.2243
vn -0.9506 0.1344 0.2800
vn -0.1802 -0.9834 -0.0187
vn -0.9754 0.0658 0.2103
vn -0.9511 0.0179 -0.3084
vn -0.9468 -0.0312 -0.3202
vn -0.3906 -0.8471 -0.3604
vn -0.5010 -0.7893 -0.3548
vn -0.6517 -0.2328 -0.7219
vn -0.9144 -0.4049 0.0059
vn -0.9165 0.0029 -0.3999
vn -0.8599 0.0540 -0.5077
vn -0.8846 0.0335 -0.4652
vn -0.7474 -0.3220 0.5811
vn -0.7340 -0.3823 0.5613
vn -0.7344 -0.3807 0.5619
vn -0.5402 0.1045 -0.8350
vn -0.5071 0.1090 -0.8550
vn -0.5100 0.1086 -0.8533
vn -0.9248 -0.2487 0.2879
vn -0.9401 -0.2314 0.2502
vn -0.9374 -0.2347 0.2573
vn -0.7957 -0.3212 0.5135
vn -0.8141 -0.3201 0.4845
vn -0.8264 -0.3191 0.4640
vn -0.2234 -0.4980 0.8379
vn -0.1829 -0.6431 0.7436
vn -0.1668 -0.6907 0.7036
vn -0.0629 0.0928 -0.9937
vn -0.0628 0.0910 -0.9939
vn 0.9165 0.0029 -0.3999
vn 0.8846 0.0335 -0.4652
vn 0.8599 0.0540 -0.5077
vn 0.7888 -0.3189 0.5255
vn 0.7637 -0.3905 0.5141
vn 0.7640 -0.3897 0.5143
vn 0.5402 0.1045 -0.8350
vn 0.5100 0.1086 -0.8533
vn 0.5071 0.1090 -0.8550
vn 0.9248 -0.2487 0.2879
vn 0.9374 -0.2347 0.2573
vn 0.9401 -0.2314 0.2502
vn 0.7957 -0.3212 0.5135
vn 0.8264 -0.3191 0.4640
vn 0.8141 -0.3201 0.4845
vn -0.0179 -0.5539 0.8324
vn -0.0147 -0.7425 0.6697
vn -0.0148 -0.7394 0.6731
vn 0.0629 0.0928 -0.9937
vn 0.0628 0.0910 -0.9939
vn 0.0628 0.0912 -0.9939
usemtl Material
s 1
f 38/1/1 1/2/2 2/3/2 40/4/1
f 2/5/3 1/6/3 3/7/3 4/8/3
f 1/9/4 38/10/4 44/11/4 5/12/4
f 5/12/5 44/11/5 46/13/5 6/14/5
f 1/6/6 5/15/6 6/16/6 3/7/6
f 40/4/7 2/3/7 7/17/7 48/18/7
f 2/3/8 4/19/8 8/20/8 9/21/8 7/17/8
f 10/22/9 8/20/9 4/19/9 3/23/9
f 3/23/10 6/24/10 12/25/10 11/26/10
f 6/24/11 46/27/11 54/28/11 12/25/11
f 12/29/12 13/30/12 11/31/12
f 57/32/13 13/30/13 12/29/13 54/33/13
f 13/34/14 14/35/14 11/26/14
f 57/36/15 59/37/15 14/35/15 13/34/15
f 14/35/16 59/37/16 61/38/16 19/39/16 15/40/16
f 10/22/17 3/23/17 11/26/17 16/41/17
f 15/40/18 19/39/18 18/42/18 17/43/18
f 14/35/19 15/40/19 11/26/19
f 11/26/20 15/40/20 17/43/20 16/41/20
f 18/42/21 19/39/21 61/38/21 64/44/21
f 48/18/22 7/17/22 20/45/22 67/46/22
f 21/47/23 20/45/23 7/17/23 9/21/23
f 64/48/24 70/49/24 17/50/24 18/51/24
f 20/52/25 21/53/25 23/54/25 22/55/25
f 67/56/26 20/57/26 22/58/26 71/59/26
f 22/60/27 23/61/27 25/62/27 24/63/27
f 71/64/28 22/60/28 24/63/28 74/65/28
f 24/66/29 25/67/29 27/68/29 26/69/29
f 74/70/30 24/66/30 26/69/30 77/71/30
f 26/69/31 27/68/31 29/72/31 28/73/31
f 77/71/32 26/69/32 28/73/32 80/74/32
f 16/75/33 17/76/33 33/77/33 32/78/33
f 10/79/34 16/75/34 32/78/34 31/80/34
f 8/81/35 10/79/35 31/80/35 30/82/35
f 70/49/36 87/83/36 33/84/36 17/50/36
f 8/81/37 30/82/37 23/54/37 21/53/37 9/85/37
f 23/86/38 30/87/38 27/88/38 25/89/38
f 29/90/39 27/88/39 30/87/39 34/91/39
f 33/92/40 87/93/40 92/94/40 37/95/40
f 32/96/41 33/92/41 37/95/41 36/97/41
f 31/98/42 32/99/42 36/100/42 35/101/42
f 31/102/43 35/103/43 34/91/43 30/87/43
f 38/1/1 40/4/1 41/104/44 39/105/44
f 41/106/45 43/107/45 42/108/45 39/109/45
f 39/110/46 45/111/46 44/11/46 38/10/46
f 45/111/5 47/112/5 46/13/5 44/11/5
f 39/110/47 42/113/47 47/112/47 45/111/47
f 40/4/7 48/18/7 49/114/7 41/104/7
f 41/104/48 49/114/48 51/115/48 50/116/48 43/117/48
f 52/118/49 42/119/49 43/117/49 50/116/49
f 42/119/50 53/120/50 55/121/50 47/122/50
f 47/122/51 55/121/51 54/28/51 46/27/51
f 55/123/52 53/124/52 56/125/52
f 57/32/53 54/33/53 55/123/53 56/125/53
f 56/126/54 53/120/54 58/127/54
f 57/36/55 56/126/55 58/127/55 59/37/55
f 58/127/56 60/128/56 66/129/56 61/38/56 59/37/56
f 52/118/57 62/130/57 53/120/57 42/119/57
f 60/128/58 63/131/58 65/132/58 66/129/58
f 58/127/59 53/120/59 60/128/59
f 53/120/60 62/130/60 63/131/60 60/128/60
f 65/132/61 64/44/61 61/38/61 66/129/61
f 48/18/62 67/46/62 68/133/62 49/114/62
f 69/134/63 51/115/63 49/114/63 68/133/63
f 64/48/64 65/135/64 63/136/64 70/49/64
f 68/137/65 72/138/65 73/139/65 69/140/65
f 67/56/66 71/59/66 72/141/66 68/142/66
f 72/143/67 75/144/67 76/145/67 73/146/67
f 71/64/68 74/65/68 75/144/68 72/143/68
f 75/147/69 78/148/69 79/149/69 76/150/69
f 74/70/70 77/71/70 78/148/70 75/147/70
f 78/151/71 81/152/71 82/153/71 79/154/71
f 77/71/72 80/74/72 81/155/72 78/148/72
f 62/156/73 85/157/73 86/158/73 63/159/73
f 52/160/74 84/161/74 85/157/74 62/156/74
f 50/162/75 83/163/75 84/161/75 52/160/75
f 70/49/76 63/136/76 86/164/76 87/83/76
f 50/162/77 51/165/77 69/140/77 73/139/77 83/163/77
f 73/166/78 76/167/78 79/154/78 83/168/78
f 82/153/79 88/169/79 83/168/79 79/154/79
f 86/170/80 91/171/80 92/94/80 87/93/80
f 85/172/81 90/173/81 91/171/81 86/170/81
f 84/174/82 89/175/82 90/176/82 85/177/82
f 84/174/83 83/168/83 88/169/83 89/175/83
f 82/153/84 106/178/85 105/179/86 88/169/84
f 90/176/87 104/180/88 102/181/89 91/182/87
f 81/152/90 101/183/91 106/178/92 82/153/90
f 88/169/93 105/179/94 103/184/95 89/175/93
f 89/175/96 103/184/97 104/180/98 90/176/96
f 91/185/99 102/186/100 95/187/101 92/188/99
f 80/74/102 94/189/103 101/190/103 81/155/102
f 29/90/104 34/91/104 99/191/105 100/192/106
f 36/193/107 37/194/107 96/195/108 97/196/109
f 28/73/110 29/72/110 100/197/111 93/198/112
f 34/91/113 35/103/113 98/199/114 99/191/115
f 35/103/116 36/193/116 97/196/117 98/199/118
f 37/200/119 92/188/119 95/187/120 96/201/121
f 80/74/122 28/73/122 93/198/123 94/189/124
