# Blender v2.93.3 OBJ File: 'sculpture.blend'
# www.blender.org
mtllib sculpture.mtl
o Plane_Plane.000
v 0.253882 -0.971730 3.653270
v 0.173753 0.335624 3.166682
v 0.559465 -1.136430 2.798899
v 0.386649 0.008486 2.821085
v 0.103946 -1.237088 3.314218
v 0.340689 -1.237088 2.996691
v 0.537287 1.034717 3.500027
v 2.007170 0.289194 2.473043
v 1.999337 1.185326 3.067173
v 1.959648 -0.450871 2.639617
v 0.992932 -1.790701 2.798899
v 0.421982 -1.593012 3.051452
v 0.448426 -1.788567 2.798899
v 0.476966 -1.968303 2.930817
v 0.480632 -2.301924 2.751175
v 1.551129 -2.093866 2.377271
v 0.583685 -3.277159 2.627617
v 0.252047 -3.354705 2.852007
v 0.207982 -2.303999 2.831831
v 1.227429 3.152395 2.567113
v 1.782701 2.573598 2.548535
v 1.548728 4.027571 -0.039670
v 2.478712 2.900947 0.013584
v 0.947812 3.398183 -2.435980
v 1.648481 2.688775 -2.504000
v 0.900283 1.571348 -3.260994
v 1.648481 1.467853 -2.629900
v 0.650252 -0.801897 -2.794460
v 1.740761 -0.887578 -2.059425
v 2.526834 0.833616 0.097369
v 2.518377 -0.078945 0.914014
v 1.901591 -1.989248 0.929544
v 0.613396 -3.278365 1.766926
v 2.127809 -0.988284 -0.972601
v 1.490280 -1.502949 0.401369
v 1.132783 -2.329167 0.388833
v 0.422909 -3.211415 0.952365
v 0.000000 -0.967331 3.653270
v -0.253882 -0.971730 3.653270
v 0.000000 0.335624 3.166682
v -0.173753 0.335624 3.166682
v -0.559465 -1.136430 2.798899
v -0.386649 0.008486 2.821085
v 0.000000 -1.237088 3.314218
v -0.103946 -1.237088 3.314218
v 0.000000 -1.237088 3.001249
v -0.340689 -1.237088 2.996691
v 0.000000 1.034717 3.500027
v -0.537287 1.034717 3.500027
v -2.007170 0.289194 2.473043
v -1.999337 1.185326 3.067173
v -1.959648 -0.450871 2.639617
v -0.992932 -1.790701 2.798899
v 0.000000 -1.661328 2.989855
v -0.421982 -1.593012 3.051452
v -0.448426 -1.788567 2.798899
v 0.000000 -1.813524 2.798899
v -0.476966 -1.968303 2.930817
v 0.000000 -2.016657 2.930817
v -0.480632 -2.301924 2.751175
v 0.000000 -2.306285 2.831831
v -1.551129 -2.093866 2.377271
v -0.583685 -3.277159 2.627617
v 0.000000 -3.356992 2.843208
v -0.252047 -3.354705 2.852007
v -0.207982 -2.303999 2.831831
v 0.000000 3.531128 2.816926
v -1.227429 3.152395 2.567113
v -1.782701 2.573598 2.548535
v 0.000000 -3.405505 2.541867
v 0.000000 4.370507 0.005702
v -1.548728 4.027571 -0.039670
v -2.478712 2.900947 0.013584
v 0.008779 3.605247 -2.642874
v -0.930254 3.398183 -2.435980
v -1.648481 2.688775 -2.504000
v 0.000000 1.630221 -3.619988
v -0.900283 1.571348 -3.260994
v -1.648481 1.467853 -2.629900
v 0.000000 -0.760633 -2.831794
v -0.650252 -0.801897 -2.794460
v -1.740761 -0.887578 -2.059425
v -2.526834 0.833616 0.097369
v -2.518377 -0.078945 0.914014
v -1.901591 -1.989248 0.929544
v -0.613396 -3.278365 1.766926
v 0.000000 -3.362510 1.491374
v -2.127809 -0.988284 -0.972601
v -1.490280 -1.502949 0.401369
v -1.132783 -2.329167 0.388833
v -0.422909 -2.938135 0.952365
v 0.000000 -3.210923 0.943621
v 0.650252 -2.067336 -2.912689
v 0.000000 -2.026072 -2.950023
v 0.000000 -3.781398 0.563975
v 0.422909 -3.781890 0.572719
v 1.132783 -3.193921 -0.102474
v 1.490280 -2.675098 -0.381570
v 1.935185 -2.192124 -1.623321
v 1.502764 -2.165409 -2.413577
v -0.650252 -2.067336 -2.912689
v -0.422909 -3.645250 0.572719
v -1.490280 -2.675098 -0.381570
v -1.132783 -3.193921 -0.102474
v -1.935185 -2.192124 -1.623321
v -1.502764 -2.165409 -2.413577
vt 0.509741 0.382567
vt 0.513178 0.382972
vt 0.510655 0.407777
vt 0.506974 0.407396
vt 0.532155 0.373200
vt 0.520919 0.400928
vt 0.510556 0.375100
vt 0.512446 0.375341
vt 0.511289 0.368425
vt 0.522810 0.372088
vt 0.512948 0.425111
vt 0.505196 0.423477
vt 0.555076 0.424132
vt 0.532796 0.436923
vt 0.562842 0.404714
vt 0.524780 0.359983
vt 0.544788 0.352823
vt 0.512608 0.356243
vt 0.526929 0.350687
vt 0.513427 0.348624
vt 0.528588 0.344036
vt 0.514249 0.340891
vt 0.515270 0.331032
vt 0.521925 0.331729
vt 0.531634 0.332295
vt 0.573075 0.344666
vt 0.525092 0.300720
vt 0.537626 0.299626
vt 0.518382 0.299726
vt 0.516174 0.459630
vt 0.501322 0.458541
vt 0.526077 0.455339
vt 0.519326 0.289008
vt 0.537258 0.491639
vt 0.516513 0.491890
vt 0.497871 0.489812
vt 0.522325 0.530305
vt 0.508014 0.523628
vt 0.494237 0.523892
vt 0.540945 0.554068
vt 0.513284 0.563270
vt 0.489901 0.562606
vt 0.691583 0.674812
vt 0.543461 0.758758
vt 0.468636 0.761112
vt 0.561785 0.260003
vt 0.660476 0.355944
vt 0.598384 0.452315
vt 0.586428 0.486179
vt 0.523495 0.226017
vt 0.715597 0.561912
vt 0.519805 0.148683
vt 0.604261 0.163883
vt 0.754585 0.283381
vt 0.707294 0.397605
vt 0.503298 0.406959
vt 0.506278 0.382210
vt 0.494789 0.398040
vt 0.489925 0.368585
vt 0.508661 0.374926
vt 0.499263 0.369520
vt 0.497274 0.423372
vt 0.475305 0.430545
vt 0.456360 0.413200
vt 0.453062 0.392549
vt 0.482019 0.346102
vt 0.499933 0.357301
vt 0.499819 0.347792
vt 0.499605 0.340972
vt 0.499086 0.328955
vt 0.508633 0.330368
vt 0.456491 0.332237
vt 0.499698 0.296222
vt 0.511614 0.299489
vt 0.486575 0.456367
vt 0.477827 0.450007
vt 0.479235 0.487790
vt 0.459037 0.483037
vt 0.480819 0.520665
vt 0.465199 0.524007
vt 0.466906 0.558194
vt 0.441937 0.543185
vt 0.395820 0.743308
vt 0.267754 0.629699
vt 0.368322 0.322704
vt 0.483943 0.256829
vt 0.407737 0.431130
vt 0.412014 0.466960
vt 0.268155 0.513328
vt 0.432266 0.173312
vt 0.290852 0.224959
vt 0.312460 0.352830
vt 0.070550 0.819314
vt 0.000098 0.573581
vt 0.185683 0.035964
vt 0.448241 0.009317
vt 0.292875 0.958265
vt 0.075946 0.202799
vt 0.547782 0.000098
vt 0.443922 0.999902
vt 0.960298 0.675037
vt 0.843759 0.898602
vt 0.640087 0.018640
vt 0.889032 0.128698
vt 0.600069 0.989456
vt 0.960298 0.306950
vn 0.0000 0.3494 0.9370
vn 0.0036 0.3494 0.9370
vn 0.9284 0.1594 0.3358
vn -0.0096 -0.7839 0.6208
vn 0.0000 -1.0000 0.0000
vn 0.5792 -0.7263 0.3701
vn 0.0000 -0.4304 0.9026
vn 0.2851 -0.5455 0.7881
vn 0.1386 0.0848 0.9867
vn 0.5002 0.2989 0.8127
vn -0.0787 0.0472 0.9958
vn -0.0031 -0.7908 0.6120
vn 0.0404 -0.7851 0.6180
vn 0.0023 0.5919 0.8060
vn -0.0447 0.5646 0.8242
vn 0.1003 -0.3619 0.9268
vn 0.3016 -0.1049 0.9476
vn 0.4519 -0.0127 0.8920
vn 0.3614 -0.4390 0.8226
vn 0.3579 -0.2035 0.9113
vn -0.0193 0.0146 0.9997
vn 0.1962 0.2979 0.9342
vn 0.2731 0.3363 0.9013
vn 0.1499 -0.9879 0.0400
vn 0.7188 0.6319 0.2900
vn 0.2699 0.9133 0.3050
vn 0.7085 0.6318 -0.3145
vn 0.2245 0.9322 -0.2840
vn 0.4716 0.2559 -0.8439
vn 0.3219 0.4016 -0.8574
vn 0.5721 -0.1939 -0.7969
vn 0.2234 -0.2592 -0.9396
vn 0.7559 -0.6476 0.0955
vn 0.9321 -0.2845 0.2243
vn 0.9506 0.1344 0.2800
vn 0.1802 -0.9834 -0.0187
vn 0.9754 0.0658 0.2103
vn 0.9511 0.0179 -0.3084
vn 0.9468 -0.0312 -0.3202
vn 0.1267 -0.9765 -0.1744
vn 0.6087 -0.7418 -0.2815
vn 0.6517 -0.2328 -0.7219
vn 0.9144 -0.4049 0.0059
vn -0.0036 0.3494 0.9370
vn -0.9284 0.1594 0.3358
vn 0.0096 -0.7839 0.6208
vn -0.5792 -0.7263 0.3701
vn -0.2851 -0.5455 0.7881
vn -0.1386 0.0848 0.9867
vn -0.5002 0.2989 0.8127
vn 0.0787 0.0472 0.9958
vn 0.0031 -0.7908 0.6120
vn -0.0404 -0.7851 0.6180
vn -0.0023 0.5919 0.8060
vn 0.0447 0.5646 0.8242
vn -0.1003 -0.3619 0.9268
vn -0.3016 -0.1049 0.9476
vn -0.4519 -0.0127 0.8920
vn -0.3614 -0.4390 0.8226
vn -0.3579 -0.2035 0.9113
vn 0.0193 0.0146 0.9997
vn -0.1962 0.2979 0.9342
vn -0.2731 0.3363 0.9013
vn -0.1499 -0.9879 0.0400
vn -0.7188 0.6319 0.2900
vn -0.2699 0.9133 0.3050
vn -0.7046 0.6351 -0.3165
vn -0.2245 0.9317 -0.2855
vn -0.4680 0.2590 -0.8449
vn -0.3219 0.4041 -0.8562
vn -0.5721 -0.1939 -0.7969
vn -0.2234 -0.2592 -0.9396
vn -0.7559 -0.6476 0.0955
vn -0.9321 -0.2845 0.2243
vn -0.9506 0.1344 0.2800
vn -0.1802 -0.9834 -0.0187
vn -0.9754 0.0658 0.2103
vn -0.9511 0.0179 -0.3084
vn -0.9468 -0.0312 -0.3202
vn -0.3906 -0.8471 -0.3604
vn -0.5010 -0.7893 -0.3548
vn -0.6517 -0.2328 -0.7219
vn -0.9144 -0.4049 0.0059
vn -0.9165 0.0029 -0.3999
vn -0.8599 0.0540 -0.5077
vn -0.8846 0.0335 -0.4652
vn -0.7474 -0.3220 0.5811
vn -0.7340 -0.3823 0.5613
vn -0.7344 -0.3807 0.5619
vn -0.5402 0.1045 -0.8350
vn -0.5071 0.1090 -0.8550
vn -0.5100 0.1086 -0.8533
vn -0.9248 -0.2487 0.2879
vn -0.9401 -0.2314 0.2502
vn -0.9374 -0.2347 0.2573
vn -0.7957 -0.3212 0.5135
vn -0.8141 -0.3201 0.4845
vn -0.8264 -0.3191 0.4640
vn -0.2234 -0.4980 0.8379
vn -0.1829 -0.6431 0.7436
vn -0.1668 -0.6907 0.7036
vn -0.0629 0.0928 -0.9937
vn -0.0628 0.0910 -0.9939
vn 0.9165 0.0029 -0.3999
vn 0.8846 0.0335 -0.4652
vn 0.8599 0.0540 -0.5077
vn 0.7888 -0.3189 0.5255
vn 0.7637 -0.3905 0.5141
vn 0.7640 -0.3897 0.5143
vn 0.5402 0.1045 -0.8350
vn 0.5100 0.1086 -0.8533
vn 0.5071 0.1090 -0.8550
vn 0.9248 -0.2487 0.2879
vn 0.9374 -0.2347 0.2573
vn 0.9401 -0.2314 0.2502
vn 0.7957 -0.3212 0.5135
vn 0.8264 -0.3191 0.4640
vn 0.8141 -0.3201 0.4845
vn -0.0179 -0.5539 0.8324
vn -0.0147 -0.7425 0.6697
vn -0.0148 -0.7394 0.6731
vn 0.0629 0.0928 -0.9937
vn 0.0628 0.0910 -0.9939
vn 0.0628 0.0912 -0.9939
usemtl Material
s 1
f 38/1/1 1/2/2 2/3/2 40/4/1
f 2/3/3 1/2/3 3/5/3 4/6/3
f 1/2/4 38/1/4 44/7/4 5/8/4
f 5/8/5 44/7/5 46/9/5 6/10/5
f 1/2/6 5/8/6 6/10/6 3/5/6
f 40/4/7 2/3/7 7/11/7 48/12/7
f 2/3/8 4/6/8 8/13/8 9/14/8 7/11/8
f 10/15/9 8/13/9 4/6/9 3/5/9
f 3/5/10 6/10/10 12/16/10 11/17/10
f 6/10/11 46/9/11 54/18/11 12/16/11
f 12/16/12 13/19/12 11/17/12
f 57/20/13 13/19/13 12/16/13 54/18/13
f 13/19/14 14/21/14 11/17/14
f 57/20/15 59/22/15 14/21/15 13/19/15
f 14/21/16 59/22/16 61/23/16 19/24/16 15/25/16
f 10/15/17 3/5/17 11/17/17 16/26/17
f 15/25/18 19/24/18 18/27/18 17/28/18
f 14/21/19 15/25/19 11/17/19
f 11/17/20 15/25/20 17/28/20 16/26/20
f 18/27/21 19/24/21 61/23/21 64/29/21
f 48/12/22 7/11/22 20/30/22 67/31/22
f 21/32/23 20/30/23 7/11/23 9/14/23
f 64/29/24 70/33/24 17/28/24 18/27/24
f 20/30/25 21/32/25 23/34/25 22/35/25
f 67/31/26 20/30/26 22/35/26 71/36/26
f 22/35/27 23/34/27 25/37/27 24/38/27
f 71/36/28 22/35/28 24/38/28 74/39/28
f 24/38/29 25/37/29 27/40/29 26/41/29
f 74/39/30 24/38/30 26/41/30 77/42/30
f 26/41/31 27/40/31 29/43/31 28/44/31
f 77/42/32 26/41/32 28/44/32 80/45/32
f 16/26/33 17/28/33 33/46/33 32/47/33
f 10/15/34 16/26/34 32/47/34 31/48/34
f 8/13/35 10/15/35 31/48/35 30/49/35
f 70/33/36 87/50/36 33/46/36 17/28/36
f 8/13/37 30/49/37 23/34/37 21/32/37 9/14/37
f 23/34/38 30/49/38 27/40/38 25/37/38
f 29/43/39 27/40/39 30/49/39 34/51/39
f 33/46/40 87/50/40 92/52/40 37/53/40
f 32/47/41 33/46/41 37/53/41 36/54/41
f 31/48/42 32/47/42 36/54/42 35/55/42
f 31/48/43 35/55/43 34/51/43 30/49/43
f 38/1/1 40/4/1 41/56/44 39/57/44
f 41/56/45 43/58/45 42/59/45 39/57/45
f 39/57/46 45/60/46 44/7/46 38/1/46
f 45/60/5 47/61/5 46/9/5 44/7/5
f 39/57/47 42/59/47 47/61/47 45/60/47
f 40/4/7 48/12/7 49/62/7 41/56/7
f 41/56/48 49/62/48 51/63/48 50/64/48 43/58/48
f 52/65/49 42/59/49 43/58/49 50/64/49
f 42/59/50 53/66/50 55/67/50 47/61/50
f 47/61/51 55/67/51 54/18/51 46/9/51
f 55/67/52 53/66/52 56/68/52
f 57/20/53 54/18/53 55/67/53 56/68/53
f 56/68/54 53/66/54 58/69/54
f 57/20/55 56/68/55 58/69/55 59/22/55
f 58/69/56 60/70/56 66/71/56 61/23/56 59/22/56
f 52/65/57 62/72/57 53/66/57 42/59/57
f 60/70/58 63/73/58 65/74/58 66/71/58
f 58/69/59 53/66/59 60/70/59
f 53/66/60 62/72/60 63/73/60 60/70/60
f 65/74/61 64/29/61 61/23/61 66/71/61
f 48/12/62 67/31/62 68/75/62 49/62/62
f 69/76/63 51/63/63 49/62/63 68/75/63
f 64/29/64 65/74/64 63/73/64 70/33/64
f 68/75/65 72/77/65 73/78/65 69/76/65
f 67/31/66 71/36/66 72/77/66 68/75/66
f 72/77/67 75/79/67 76/80/67 73/78/67
f 71/36/68 74/39/68 75/79/68 72/77/68
f 75/79/69 78/81/69 79/82/69 76/80/69
f 74/39/70 77/42/70 78/81/70 75/79/70
f 78/81/71 81/83/71 82/84/71 79/82/71
f 77/42/72 80/45/72 81/83/72 78/81/72
f 62/72/73 85/85/73 86/86/73 63/73/73
f 52/65/74 84/87/74 85/85/74 62/72/74
f 50/64/75 83/88/75 84/87/75 52/65/75
f 70/33/76 63/73/76 86/86/76 87/50/76
f 50/64/77 51/63/77 69/76/77 73/78/77 83/88/77
f 73/78/78 76/80/78 79/82/78 83/88/78
f 82/84/79 88/89/79 83/88/79 79/82/79
f 86/86/80 91/90/80 92/52/80 87/50/80
f 85/85/81 90/91/81 91/90/81 86/86/81
f 84/87/82 89/92/82 90/91/82 85/85/82
f 84/87/83 83/88/83 88/89/83 89/92/83
f 82/84/84 106/93/85 105/94/86 88/89/84
f 90/91/87 104/95/88 102/96/89 91/90/87
f 81/83/90 101/97/91 106/93/92 82/84/90
f 88/89/93 105/94/94 103/98/95 89/92/93
f 89/92/96 103/98/97 104/95/98 90/91/96
f 91/90/99 102/96/100 95/99/101 92/52/99
f 80/45/102 94/100/103 101/97/103 81/83/102
f 29/43/104 34/51/104 99/101/105 100/102/106
f 36/54/107 37/53/107 96/103/108 97/104/109
f 28/44/110 29/43/110 100/102/111 93/105/112
f 34/51/113 35/55/113 98/106/114 99/101/115
f 35/55/116 36/54/116 97/104/117 98/106/118
f 37/53/119 92/52/119 95/99/120 96/103/121
f 80/45/122 28/44/122 93/105/123 94/100/124
